HIERARCHY
ROOT Hips
{
 OFFSET 0.000000 0.000000 0.000000
 CHANNELS 6 Xposition Yposition Zposition Yrotation Xrotation Zrotation
 JOINT Chest
 {
  OFFSET 0.000000 9.585900 0.002600
  CHANNELS 3 Yrotation Xrotation Zrotation
  JOINT Chest2
  {
   OFFSET 0.000000 9.601200 -0.005300
   CHANNELS 3 Yrotation Xrotation Zrotation
   JOINT Chest3
   {
    OFFSET 0.000000 9.561800 0.000000
    CHANNELS 3 Yrotation Xrotation Zrotation
    JOINT Chest4
    {
     OFFSET 0.000000 9.552100 0.000000
     CHANNELS 3 Yrotation Xrotation Zrotation
     JOINT Neck
     {
      OFFSET 0.000000 14.453000 0.000000
      CHANNELS 3 Yrotation Xrotation Zrotation
      JOINT Head
      {
       OFFSET 0.000000 8.936500 -0.011300
       CHANNELS 3 Yrotation Xrotation Zrotation
       End Site
       {
        OFFSET 0.000000 17.073600 -0.006000
       }
      }
     }
     JOINT RightCollar
     {
      OFFSET -2.921100 9.558500 0.000000
      CHANNELS 3 Yrotation Xrotation Zrotation
      JOINT RightShoulder
      {
       OFFSET -13.519700 0.000000 0.000000
       CHANNELS 3 Yrotation Xrotation Zrotation
       JOINT RightElbow
       {
        OFFSET 0.000000 -29.696600 0.000000
        CHANNELS 3 Yrotation Xrotation Zrotation
        JOINT RightWrist
        {
         OFFSET 0.000000 -24.004700 0.000000
         CHANNELS 3 Yrotation Xrotation Zrotation
         End Site
         {
          OFFSET 0.000000 -17.728500 0.000000
         }
        }
       }
      }
     }
     JOINT LeftCollar
     {
      OFFSET 2.921100 9.558500 0.000000
      CHANNELS 3 Yrotation Xrotation Zrotation
      JOINT LeftShoulder
      {
       OFFSET 13.519700 0.000000 0.000000
       CHANNELS 3 Yrotation Xrotation Zrotation
       JOINT LeftElbow
       {
        OFFSET 0.000000 -29.696600 0.000000
        CHANNELS 3 Yrotation Xrotation Zrotation
        JOINT LeftWrist
        {
         OFFSET 0.000000 -24.004700 0.000000
         CHANNELS 3 Yrotation Xrotation Zrotation
         End Site
         {
          OFFSET 0.000000 -17.728500 0.000000
         }
        }
       }
      }
     }
    }
   }
  }
 }
 JOINT RightHip
 {
  OFFSET -7.771700 -0.012900 -0.001300
  CHANNELS 3 Yrotation Xrotation Zrotation
  JOINT RightKnee
  {
   OFFSET 0.000000 -40.869800 0.001200
   CHANNELS 3 Yrotation Xrotation Zrotation
   JOINT RightAnkle
   {
    OFFSET 0.000000 -39.717900 0.002100
    CHANNELS 3 Yrotation Xrotation Zrotation
    JOINT RightToe
    {
     OFFSET 0.000000 -4.965400 11.033500
     CHANNELS 3 Yrotation Xrotation Zrotation
     End Site
     {
      OFFSET 0.000000 -1.423100 5.872300
     }
    }
   }
  }
 }
 JOINT LeftHip
 {
  OFFSET 7.771700 -0.012900 -0.001300
  CHANNELS 3 Yrotation Xrotation Zrotation
  JOINT LeftKnee
  {
   OFFSET 0.000000 -40.869800 0.001200
   CHANNELS 3 Yrotation Xrotation Zrotation
   JOINT LeftAnkle
   {
    OFFSET 0.000000 -39.717900 0.002100
    CHANNELS 3 Yrotation Xrotation Zrotation
    JOINT LeftToe
    {
     OFFSET 0.000000 -4.965400 11.033500
     CHANNELS 3 Yrotation Xrotation Zrotation
     End Site
     {
      OFFSET 0.000000 -1.423100 5.872300
     }
    }
   }
  }
 }
}
MOTION
Frames: 8
Frame Time: 0.008333
-36.089897 57.907270 12.809544 176.471014 -51.191200 -2.809815 3.032508 22.354130 3.296090 1.531111 12.781732 1.698342 1.984077 15.946919 2.178611 1.529111 12.781895 1.695278 0.476247 15.687312 2.510736 -0.021352 -6.641389 4.505946 1.969438 3.916990 0.789551 -0.075426 -15.213911 -11.368542 -99.662621 -55.379814 146.623521 14.196156 2.058860 -9.955367 -10.203654 0.729495 -2.058815 -3.158492 -12.787039 16.949309 115.749190 -62.810555 -150.341589 -10.204898 -17.663051 14.764711 2.600198 -20.796592 -3.609207 -33.018887 72.913633 -35.969100 7.831625 -11.728991 10.869946 -0.008272 0.206295 0.047401 -6.151332 -17.658915 6.106551 85.285858 82.485002 84.973288 1.311936 -21.792118 -18.147889 -0.014080 0.015871 -0.001096
-36.086802 57.914753 12.811871 176.482783 -51.208457 -2.811960 3.029102 22.331549 3.284445 1.526191 12.798579 1.699032 1.982753 15.947575 2.172962 1.530170 12.792706 1.701514 0.470655 15.691836 2.509314 -0.033068 -6.618262 4.512350 1.981425 3.914647 0.770575 -0.091371 -15.213501 -11.352923 -99.672810 -55.373776 146.630999 14.184429 2.054460 -9.978608 -10.201444 0.730166 -2.059342 -3.122184 -12.792256 16.913637 115.754899 -62.815414 -150.349505 -10.205387 -17.657114 14.751606 2.599817 -20.769802 -3.612051 -32.806392 72.961361 -35.763382 7.768088 -11.827124 10.851392 0.004117 0.189572 0.045366 -6.147666 -17.641959 6.099985 85.264030 82.486000 84.954247 1.307929 -21.786718 -18.143439 -0.016286 0.012109 -0.002802
-36.082640 57.922700 12.812868 176.503818 -51.226831 -2.826932 3.017608 22.344972 3.283410 1.527230 12.781799 1.691411 1.982648 15.947527 2.167726 1.529741 12.803331 1.707848 0.472609 15.700653 2.515336 -0.052546 -6.599355 4.511845 1.979235 3.899185 0.735000 -0.099101 -15.192550 -11.312467 -99.706861 -55.374417 146.662948 14.165477 2.048299 -10.007528 -10.194268 0.721330 -2.064320 -3.049473 -12.804945 16.835942 115.743971 -62.857787 -150.384899 -10.195779 -17.639080 14.715098 2.588020 -20.736422 -3.602117 -32.604378 72.998335 -35.574161 7.714262 -11.911740 10.840894 -0.015177 0.231353 0.049963 -6.145647 -17.624185 6.099782 85.246620 82.490533 84.947501 1.306351 -21.783007 -18.142788 -0.016505 0.008777 -0.003179
-36.078208 57.930957 12.812522 176.521370 -51.246544 -2.839903 3.016896 22.344468 3.281195 1.524641 12.780802 1.688869 1.980246 15.957025 2.171558 1.525363 12.791617 1.697994 0.467319 15.714738 2.518517 -0.062820 -6.574641 4.517057 1.982101 3.902542 0.722797 -0.106951 -15.178013 -11.286813 -99.798359 -55.395033 146.749588 14.104975 2.051467 -10.030079 -10.190588 0.723228 -2.061023 -3.028464 -12.789851 16.821914 115.761886 -62.849785 -150.385561 -10.207096 -17.638326 14.719622 2.574633 -20.701262 -3.588833 -32.424454 73.031924 -35.408519 7.662207 -11.994250 10.831291 -0.024509 0.268792 0.053759 -6.145930 -17.601851 6.098735 85.223925 82.491709 84.932819 1.305401 -21.782419 -18.144325 -0.015862 0.007025 -0.003788
-36.073588 57.939584 12.810774 176.539000 -51.269071 -2.852843 3.013764 22.345851 3.277736 1.524418 12.780063 1.685772 1.978635 15.967234 2.175943 1.524620 12.755793 1.659436 0.467629 15.752195 2.550216 -0.074920 -6.550417 4.521571 1.987927 3.934400 0.752021 -0.126500 -15.177759 -11.279562 -99.802933 -55.389240 146.757667 14.083418 2.046207 -10.044676 -10.189128 0.754516 -2.035982 -3.011156 -12.773950 16.811601 115.776302 -62.843030 -150.384921 -10.210113 -17.644064 14.716058 2.552434 -20.664052 -3.572256 -32.274058 73.059580 -35.276479 7.609853 -12.047076 10.825655 0.009370 0.206653 0.043394 -6.147639 -17.577163 6.095896 85.216165 82.487820 84.932082 1.304028 -21.780510 -18.148114 -0.018524 0.004186 -0.003561
-36.067813 57.947703 12.808467 176.551842 -51.288905 -2.867603 3.015863 22.328785 3.273309 1.523238 12.793615 1.686663 1.981056 15.965145 2.170738 1.524027 12.755493 1.657688 0.463365 15.764638 2.552018 -0.088062 -6.523803 4.526120 1.992752 3.952787 0.770046 -0.151643 -15.209020 -11.297005 -99.734837 -55.367269 146.703836 14.080042 2.011510 -10.117063 -10.188833 0.729027 -2.044939 -2.948620 -12.747918 16.768567 115.749058 -62.884865 -150.412068 -10.224622 -17.659807 14.748297 2.521607 -20.630314 -3.548357 -32.158544 73.077390 -35.185396 7.568528 -12.099987 10.817734 0.029283 0.175313 0.040742 -6.147856 -17.555141 6.103500 85.209053 82.479164 84.923555 1.315257 -21.771525 -18.142668 -0.047093 0.002719 -0.011734
-36.062960 57.953855 12.806546 176.566399 -51.296503 -2.876824 3.012944 22.311358 3.266224 1.524103 12.796938 1.685666 1.976698 15.946708 2.149972 1.524825 12.769086 1.667547 0.443998 15.768845 2.527090 -0.084764 -6.488654 4.546250 1.995418 3.958691 0.768599 -0.161366 -15.199704 -11.276203 -99.753371 -55.374964 146.717490 14.053767 1.994909 -10.149314 -10.183178 0.749620 -2.030290 -2.940491 -12.744045 16.762252 115.754951 -62.882103 -150.408801 -10.233135 -17.666216 14.764798 2.460624 -20.610476 -3.516055 -32.068172 73.083598 -35.147467 7.536910 -12.172388 10.809365 0.028637 0.193719 0.042802 -6.151878 -17.546301 6.104075 85.212755 82.473321 84.924853 1.313674 -21.767941 -18.140147 -0.054722 -0.000020 -0.014076
-36.058009 57.960013 12.803572 176.578564 -51.308235 -2.882764 3.012204 22.303323 3.260609 1.516363 12.795577 1.677772 1.979636 15.961521 2.159740 1.523569 12.761643 1.659840 0.434418 15.768336 2.512095 -0.092585 -6.464176 4.545368 1.994261 3.931995 0.715986 -0.181742 -15.168495 -11.214202 -99.757248 -55.384541 146.725475 14.033606 1.973000 -10.188618 -10.174275 0.731384 -2.040008 -2.915488 -12.730514 16.745144 115.791767 -62.875216 -150.392122 -10.214795 -17.651375 14.715073 2.414518 -20.592533 -3.491321 -32.023138 73.091012 -35.143677 7.515074 -12.230379 10.804912 0.033215 0.187220 0.041482 -6.153803 -17.532788 6.103354 85.202435 82.473445 84.914832 1.313172 -21.762599 -18.139201 -0.057208 -0.005711 -0.016144
